<svg width="118" height="22" viewBox="0 0 118 22" fill="none" xmlns="http://www.w3.org/2000/svg">
<g id="SaintStream">
<path d="M2.95059 15.661V18.9548C2.95059 19.0584 3.00235 19.1102 3.10588 19.1102H4.34824C4.45177 19.1102 4.50353 19.0584 4.50353 18.9548V13.3616L2.04988 12.274C1.86353 12.2119 1.60471 12.1083 1.27341 11.9633C0.942118 11.7976 0.641882 11.5593 0.372706 11.2486C0.124235 10.9379 0 10.5132 0 9.97458V2.88983C0 2.01977 0.269177 1.3258 0.80753 0.80791C1.34588 0.269303 2.04988 0 2.91953 0H4.53459C5.40424 0 6.10824 0.269303 6.64659 0.80791C7.18494 1.3258 7.45412 2.01977 7.45412 2.88983V7.4887L4.50353 7.24011V3.0452C4.50353 2.94162 4.45177 2.88983 4.34824 2.88983H3.10588C3.00235 2.88983 2.95059 2.94162 2.95059 3.0452V9.53955L5.40424 10.6271C5.59059 10.71 5.84941 10.8239 6.18071 10.9689C6.512 11.1139 6.80188 11.3418 7.05035 11.6525C7.31953 11.9633 7.45412 12.3879 7.45412 12.9266V19.1102C7.45412 19.9802 7.18494 20.6846 6.64659 21.2232C6.10824 21.7411 5.40424 22 4.53459 22H2.91953C2.04988 22 1.34588 21.7411 0.80753 21.2232C0.269177 20.6846 0 19.9802 0 19.1102V15.661H2.95059Z" fill="white"/>
<path d="M14.3266 21.8757C13.3741 21.8757 12.608 21.6064 12.0283 21.0678C11.4692 20.5085 11.1897 19.8145 11.1897 18.9859V9.22881C11.1897 8.37947 11.4692 7.6855 12.0283 7.14689C12.608 6.60829 13.3741 6.33898 14.3266 6.33898H14.4508C15.0099 6.33898 15.5068 6.47364 15.9417 6.74294V6.33898H18.8923V18.9859H19.3271L19.6377 21.8757H15.9417V20.6638L15.1652 21.8757H14.3266ZM14.2956 9.22881C14.192 9.22881 14.1403 9.2806 14.1403 9.38418V18.8305C14.1403 18.9341 14.192 18.9859 14.2956 18.9859H15.9417V9.22881H14.2956Z" fill="white"/>
<path d="M25.6903 2.20622L26.0008 5.09605H23.0503V2.20622H25.6903ZM26.0008 6.33898V21.8757H23.0503V9.22881H22.5844L22.895 6.33898H26.0008Z" fill="white"/>
<path d="M30.1518 21.8757V9.22881H29.4064L29.717 6.33898H33.1024V7.55085L33.8789 6.33898H34.7175C35.6699 6.33898 36.4257 6.60829 36.9848 7.14689C37.5645 7.6855 37.8544 8.37947 37.8544 9.22881V18.9859H38.6309L38.3203 21.8757H34.9038V9.38418C34.9038 9.2806 34.8521 9.22881 34.7485 9.22881H33.1024V21.8757H30.1518Z" fill="white"/>
<path d="M47.1674 18.9859V21.8757H45.366C44.4964 21.8757 43.7924 21.6168 43.254 21.0989C42.7157 20.5603 42.4465 19.8559 42.4465 18.9859V9.22881H41.142L41.3905 6.33898H42.4465V3.01412H41.67L41.9185 0.124294H45.3971V6.33898H47.1674L46.919 9.22881H45.3971V18.9859H47.1674Z" fill="white"/>
<path d="M53.5304 15.661V18.9548C53.5304 19.0584 53.5821 19.1102 53.6857 19.1102H54.928C55.0316 19.1102 55.0833 19.0584 55.0833 18.9548V13.3616L52.6297 12.274C52.4433 12.2119 52.1845 12.1083 51.8532 11.9633C51.5219 11.7976 51.2217 11.5593 50.9525 11.2486C50.704 10.9379 50.5798 10.5132 50.5798 9.97458V2.88983C50.5798 2.01977 50.849 1.3258 51.3873 0.80791C51.9257 0.269303 52.6297 0 53.4993 0H55.1144C55.984 0 56.688 0.269303 57.2264 0.80791C57.7647 1.3258 58.0339 2.01977 58.0339 2.88983V7.4887L55.0833 7.24011V3.0452C55.0833 2.94162 55.0316 2.88983 54.928 2.88983H53.6857C53.5821 2.88983 53.5304 2.94162 53.5304 3.0452V9.53955L55.984 10.6271C56.1704 10.71 56.4292 10.8239 56.7605 10.9689C57.0918 11.1139 57.3817 11.3418 57.6301 11.6525C57.8993 11.9633 58.0339 12.3879 58.0339 12.9266V19.1102C58.0339 19.9802 57.7647 20.6846 57.2264 21.2232C56.688 21.7411 55.984 22 55.1144 22H53.4993C52.6297 22 51.9257 21.7411 51.3873 21.2232C50.849 20.6846 50.5798 19.9802 50.5798 19.1102V15.661H53.5304Z" fill="white"/>
<path d="M67.4843 18.9859V21.8757H65.6829C64.8132 21.8757 64.1092 21.6168 63.5709 21.0989C63.0325 20.5603 62.7633 19.8559 62.7633 18.9859V9.22881H61.4589L61.7073 6.33898H62.7633V3.01412H61.9869L62.2353 0.124294H65.7139V6.33898H67.4843L67.2358 9.22881H65.7139V18.9859H67.4843Z" fill="white"/>
<path d="M74.282 6.33898V7.70621L75.1206 6.33898H77.2016V9.35311H74.282V21.8757H71.3314V9.22881H70.586L70.8966 6.33898H74.282Z" fill="white"/>
<path d="M80.6304 19.1102V9.10452C80.6304 8.23446 80.8996 7.54049 81.4379 7.0226C81.9763 6.48399 82.6803 6.21469 83.5499 6.21469H85.4756C86.3452 6.21469 87.0492 6.48399 87.5876 7.0226C88.1259 7.54049 88.3951 8.23446 88.3951 9.10452V12.9266H85.4445V9.25989C85.4445 9.15631 85.3928 9.10452 85.2892 9.10452H83.7363C83.6328 9.10452 83.581 9.15631 83.581 9.25989V12.9266H88.3951V15.8164H83.581V18.9548C83.581 19.0584 83.6328 19.1102 83.7363 19.1102H85.2892C85.3928 19.1102 85.4445 19.0687 85.4445 18.9859V17.2768H88.3951V19.1102C88.3951 19.9802 88.1259 20.6846 87.5876 21.2232C87.0492 21.7411 86.3452 22 85.4756 22H83.5499C82.6803 22 81.9763 21.7411 81.4379 21.2232C80.8996 20.6846 80.6304 19.9802 80.6304 19.1102Z" fill="white"/>
<path d="M95.412 21.8757C94.4595 21.8757 93.6934 21.6064 93.1136 21.0678C92.5546 20.5085 92.275 19.8145 92.275 18.9859V9.22881C92.275 8.37947 92.5546 7.6855 93.1136 7.14689C93.6934 6.60829 94.4595 6.33898 95.412 6.33898H95.5362C96.0953 6.33898 96.5922 6.47364 97.027 6.74294V6.33898H99.9776V18.9859H100.412L100.723 21.8757H97.027V20.6638L96.2506 21.8757H95.412ZM95.3809 9.22881C95.2774 9.22881 95.2256 9.2806 95.2256 9.38418V18.8305C95.2256 18.9341 95.2774 18.9859 95.3809 18.9859H97.027V9.22881H95.3809Z" fill="white"/>
<path d="M112.118 21.8757H109.167V9.38418C109.167 9.2806 109.115 9.22881 109.012 9.22881H107.366V21.8757H104.415V9.22881H103.67L103.98 6.33898H107.366V7.55085L108.142 6.33898H108.981C109.664 6.33898 110.254 6.48399 110.751 6.77401C111.248 7.06403 111.61 7.45763 111.838 7.9548L112.894 6.33898H113.733C114.685 6.33898 115.441 6.60829 116 7.14689C116.58 7.6855 116.87 8.37947 116.87 9.22881V18.9859H117.615L117.305 21.8757H113.919V9.38418C113.919 9.2806 113.867 9.22881 113.764 9.22881H112.118V21.8757Z" fill="white"/>
</g>
</svg>
